# xmcd
#
# Track frame offsets: 
#        150
#        20406
#        42850
#        68961
#        88630
#        113062
#        137511
#        158732
#        180380
#        200270
#        226724
#
# Disc length: 3338 seconds
#
# Revision: 0
# Processed by: cddbd v1.5.2PL0 Copyright (c) Steve Scherf et al.
# Submitted via: ExactAudioCopy v0.99pb5
#
DISCID=7f0d080b
DTITLE=Dan Truong - Vol 14: Thuong tham
DYEAR=2005
DGENRE=Folk
TTITLE0=Thuong Tham
TTITLE1=To Tinh
TTITLE2=Noi Toi
TTITLE3=Con Dieu Cua Me 
TTITLE4=Chim Sao Tuong Tu 
TTITLE5=Mien Trung Oi 
TTITLE6=Mien Bien Man
TTITLE7=Vang Em Vang Mai Cau Ho 
TTITLE8=Giot Mo Hoi Cua Me 
TTITLE9=Ly Con Cua 
TTITLE10=LO HEN 
EXTD=
EXTT0=
EXTT1=
EXTT2=
EXTT3=
EXTT4=
EXTT5=
EXTT6=
EXTT7=
EXTT8=
EXTT9=
EXTT10=
PLAYORDER=
